<?xml version="1.0" encoding="UTF-8"?>
<svg xmlns="http://www.w3.org/2000/svg" viewBox="0 0 200 200" width="200" height="200">
  <rect width="200" height="200" fill="none" rx="20"/>
  <polygon points="100,15 92,50 108,50" fill="#FFD700" stroke="#B8860B" stroke-width="2"/><ellipse cx="100" cy="80" rx="35" ry="32" fill="#FFE4F0" stroke="#CC80A0" stroke-width="3"/>
      <ellipse cx="100" cy="110" rx="45" ry="55" fill="#FFE4F0" stroke="#CC80A0" stroke-width="3"/><path d="M65 65 Q40 80 55 110 Q50 90 65 75" fill="#FF69B4" opacity="0.6"/>
      <path d="M135 65 Q160 80 145 110 Q150 90 135 75" fill="#FF69B4" opacity="0.6"/><circle cx="88" cy="95" r="4" fill="#5A3D5A"/>
      <circle cx="112" cy="95" r="4" fill="#5A3D5A"/>
      <circle cx="90" cy="93" r="1.5" fill="white"/>
      <circle cx="114" cy="93" r="1.5" fill="white"/>
      <ellipse cx="100" cy="110" rx="5" ry="3" fill="#CC80A0"/><path d="M30 60 Q50 45 70 60" stroke="#FF0000" fill="none" stroke-width="2" opacity="0.5"/>
          <path d="M30 65 Q50 50 70 65" stroke="#FFA500" fill="none" stroke-width="2" opacity="0.5"/>
          <path d="M30 70 Q50 55 70 70" stroke="#FFD700" fill="none" stroke-width="2" opacity="0.5"/>
</svg>